<?xml version="1.0" encoding="UTF-8"?>
<svg id="Capa_2" data-name="Capa 2" xmlns="http://www.w3.org/2000/svg" xmlns:xlink="http://www.w3.org/1999/xlink" viewBox="0 0 1920 1074.69">
  <defs>
    <style>
      .cls-1 {
        fill: #121212;
      }

      .cls-2 {
        fill: url(#Degradado_sin_nombre_4);
      }
    </style>
    <linearGradient id="Degradado_sin_nombre_4" data-name="Degradado sin nombre 4" x1="0" y1="652.74" x2="149.8" y2="652.74" gradientUnits="userSpaceOnUse">
      <stop offset="0" stop-color="#c965ea"/>
      <stop offset="1" stop-color="#b799ff"/>
    </linearGradient>
  </defs>
  <g id="Capa_1-2" data-name="Capa 1">
    <g>
      <path class="cls-2" d="M64.95,402.95c-13.47,17.09-20.3,39.82-20.3,67.57v153.51c0,9.99-1.94,17.7-5.77,22.91-3.82,5.2-9.55,8.77-17.02,10.61l-21.86,5.36v43.73l23.38-5.74c7.18-1.75,12.57-1.13,16.03,1.88,3.48,3.03,5.25,9.48,5.25,19.16v153.51c0,27.68,7.02,47.28,20.88,58.27,8.68,6.88,19.94,10.33,33.63,10.33,8.02,0,16.87-1.18,26.52-3.55l24.12-5.92v-43.12l-19.42,4.77c-13.14,3.22-22.96,1.89-29.21-3.98-6.36-5.94-9.58-16.13-9.58-30.28v-149.28c0-12.72-1.39-22.18-4.26-28.95-2.99-7.01-7.67-12.02-13.92-14.87-.96-.44-1.97-.84-3.02-1.19,1.38-1.07,2.68-2.16,3.9-3.27,5.88-5.36,10.3-12.15,13.13-20.19,2.77-7.88,4.17-18.19,4.17-30.66v-149.28c0-14.44,3.38-26.59,10.06-36.12,6.63-9.46,16.81-15.94,30.25-19.24l17.9-4.4v-43.12l-25.64,6.3c-25.86,6.35-45.78,18.2-59.2,35.23Z"/>
      <path class="cls-1" d="M1313.56,413.52c-14.97.56-30.49,2.65-46.12,6.24-34.22,7.86-62.99,26.02-85.52,53.99-22.54,27.99-33.96,59.83-33.96,94.65v33.59c0,33.94,7.39,58.73,21.95,73.69,10.95,11.27,24.63,16.93,40.81,16.93,5.88,0,12.1-.75,18.63-2.25,17.88-4.1,33.51-12.59,46.44-25.22,12.16-11.88,22.58-27.06,30.99-45.17l3.08-.71v48.57l51.11-11.73v-239.98l-4.59-.63c-13.45-1.85-27.84-2.51-42.82-1.97ZM1309.85,574.54c-12.88,19.01-25.48,34.05-37.48,44.71-11.95,10.63-23.83,17.35-35.3,19.98-12.58,2.89-21.59.89-27.54-6.11-6.42-7.55-9.67-21.21-9.67-40.6v-32.78c0-25.89,6.42-47.03,19.07-62.85,12.66-15.82,29.09-26.14,48.85-30.68,8.58-1.97,16.86-3.34,24.6-4.07,5.9-.55,11.75-.85,17.46-.9v113.3Z"/>
      <polygon class="cls-1" points="932.03 549.02 1061.47 519.3 932.03 710.33 932.03 754.96 1128.4 709.88 1128.4 662.65 998.96 692.36 1128.4 501.33 1128.4 456.71 932.03 501.79 932.03 549.02"/>
      <polygon class="cls-1" points="1723.22 367.05 1852.93 337.27 1723.22 528.7 1723.22 573.43 1920 528.25 1920 480.92 1790.29 510.7 1920 319.26 1920 274.54 1723.22 319.72 1723.22 367.05"/>
      <path class="cls-1" d="M874.91,535.16c-15.29-12.65-36.13-16.07-61.94-10.13-16.92,3.88-32.23,11.61-45.5,22.98-12.54,10.75-22.04,23.66-28.29,38.4l-2.94.67v-40.4l-51.01,11.71v253.3l51.01-11.71v-168.15c11.21-15.37,22.85-27.99,34.6-37.5,11.82-9.58,23.54-15.75,34.81-18.34,13.72-3.16,23.76-1.76,30.69,4.25,6.96,6.05,10.49,16.87,10.49,32.15v162.21l51.02-11.71v-167.85c0-27.12-7.71-47.26-22.93-59.87Z"/>
      <path class="cls-1" d="M1652.06,520.36c-4.42,12.71-10.95,22.73-19.39,29.78-8.54,7.14-22.59,12.99-41.78,17.4-19.43,4.46-33.95,3.61-43.18-2.52-8.94-5.93-13.48-18.6-13.48-37.64v-22.43l166.86-38.31v-42.23c0-35.26-10.3-59.63-30.62-72.45-19.95-12.58-46.59-15.17-79.16-7.69-31.95,7.33-58.24,21.72-78.14,42.76-20.12,21.26-30.32,48.97-30.32,82.35v67.16c0,33.03,10.01,56.21,29.76,68.87,11.9,7.64,26.75,11.47,44.36,11.47,11.09,0,23.27-1.52,36.5-4.56,32.32-7.42,56.72-17.91,72.52-31.17,15.92-13.36,27.93-31.96,35.69-55.3l1.99-5.98-50.4-2.97-1.2,3.45ZM1534.22,459.8c0-19.58,4.87-35.24,14.49-46.56,9.7-11.4,24.61-19.48,44.33-24,7.49-1.72,14.25-2.58,20.26-2.58,9.46,0,17.05,2.13,22.67,6.38,9.11,6.9,13.72,20.95,13.72,41.78v2.41l-115.48,26.51v-3.94Z"/>
      <path class="cls-1" d="M373.04,327.53c-14.49-10.99-32.59-14.09-53.81-9.23-18.72,4.3-34.93,12.16-48.18,23.37-12.7,10.75-22.42,25.2-28.91,43l-4.25.98v-44.26l-54.5,12.51v276.02l54.5-12.51v-188.54c9.2-15.53,19.21-27.83,29.77-36.57,10.68-8.84,22.7-14.83,35.72-17.82,13.64-3.13,23.68-2.11,29.87,3.02,6.26,5.19,9.43,15.5,9.43,30.63v30.33l52.29-12v-43.91c0-25.47-7.38-43.99-21.94-55.05Z"/>
      <path class="cls-1" d="M600.73,441.98c-12.91,17.94-25.73,32.08-38.13,42.02-12.46,10-25.39,16.59-38.43,19.59-15.93,3.66-27.66,2.32-34.86-3.99-7.35-6.42-11.08-18.72-11.08-36.56v-176.81l-54.51,12.51v183.31c0,28.62,8.59,50.24,25.54,64.23,11.79,9.75,26.18,14.64,42.97,14.64,7.41,0,15.29-.95,23.62-2.87,17.85-4.09,34.44-12.65,49.32-25.42,14.12-12.13,24.6-26.15,31.16-41.73l4.4-1.01v44.25l54.51-12.51V245.6l-54.51,12.51v183.87Z"/>
      <path class="cls-1" d="M1132.63,334.13c-4.77,13.71-11.81,24.51-20.92,32.12-9.21,7.7-24.37,14.01-45.06,18.76-20.96,4.81-36.62,3.9-46.57-2.72-9.65-6.4-14.54-20.06-14.54-40.6v-24.19l179.96-41.32v-45.54c0-38.03-11.11-64.32-33.03-78.14-21.52-13.57-50.25-16.36-85.38-8.3-34.45,7.91-62.81,23.42-84.28,46.11-21.7,22.93-32.7,52.81-32.7,88.82v72.44c0,35.63,10.8,60.62,32.09,74.28,12.84,8.24,28.85,12.37,47.84,12.37,11.96,0,25.1-1.64,39.37-4.91,34.85-8,61.17-19.31,78.22-33.61,17.17-14.4,30.12-34.47,38.49-59.64l2.15-6.45-54.36-3.21-1.3,3.72ZM1005.55,268.82c0-21.12,5.26-38.01,15.63-50.21,10.46-12.3,26.54-21.01,47.81-25.89,8.08-1.86,15.37-2.78,21.85-2.78,10.2,0,18.39,2.3,24.45,6.89,9.82,7.44,14.8,22.6,14.8,45.06v2.6l-124.54,28.59v-4.25Z"/>
      <path class="cls-1" d="M896.84,214.66c-16.29-15.42-39.28-19.86-68.34-13.19-17.54,4.03-33.61,12.23-47.74,24.39-13.45,11.57-24.24,25.89-32.09,42.58l-4.54,1.04V2.02l-54.46,12.5v469.56l3.22,1.29c16.35,6.54,34.46,10.37,53.82,11.37,3.7.19,7.37.29,11.04.29,15.44,0,30.6-1.69,45.19-5.03h0c36.84-8.46,66-24.41,86.67-47.39,20.82-23.15,31.38-51.77,31.38-85.05v-72.07c0-33.15-8.13-57.65-24.15-72.82ZM866.53,368.82c0,19.84-5.37,36.03-15.97,48.11-10.72,12.22-27.66,21.05-50.35,26.26h0c-11.29,2.59-21.92,3.69-31.55,3.24-8.42-.38-16.65-1.86-24.52-4.39v-124.74c12.05-17.43,24.35-31.35,36.59-41.39,12.29-10.09,25.42-16.78,39.02-19.9,15.92-3.66,27.79-2.2,35.28,4.32,7.63,6.65,11.5,19.35,11.5,37.75v70.74Z"/>
      <path class="cls-1" d="M405.68,647.13c-15.16-5.13-32.35-8.03-51.1-8.59-18.67-.58-37.7,1.33-56.51,5.66-36.13,8.29-64.73,24-85.01,46.71-20.44,22.88-30.81,50.9-30.81,83.29v48.8c0,6.52.41,12.59,1.05,18.43,2.56,23.32,10.12,41.23,22.75,53.19,16.08,15.23,38.74,19.61,67.36,13.05,17.24-3.96,33.03-12.02,46.91-23.96,13.12-11.29,23.67-25.24,31.38-41.52l3.16-.72v99.66c0,18.94-6.4,34.8-19.58,48.52-13.27,13.8-32.08,23.58-55.91,29.05-10.54,2.42-22.04,3.92-34.18,4.46-12.21.54-24.07.26-35.26-.85l-5.07-.49v51.8c7.09.68,14.38,1.1,21.96,1.1,4.58,0,9.24-.12,13.96-.37,14.15-.77,27.7-2.63,40.26-5.52,40.09-9.2,71.79-26.12,94.23-50.27,21.91-23.61,33.27-52.21,33.98-84.97.02-1.09.14-2.15.14-3.25v-74.85l.14-13.95v-.09s0-192.98,0-192.98l-3.85-1.31ZM355,793.67c-11.69,16.89-23.7,30.39-35.7,40.16-3.46,2.82-6.98,5.33-10.53,7.6-8.83,5.63-17.9,9.56-27.1,11.68-15.31,3.5-26.69,2.07-33.84-4.27-2.19-1.95-4.02-4.46-5.56-7.41-3.62-6.91-5.48-16.5-5.48-28.77v-47.51c0-19.21,5.26-34.88,15.63-46.58,10.53-11.87,26.89-20.42,48.63-25.41,8.74-2.01,17.43-3.02,25.9-3.02,1.31,0,2.62.03,3.92.07,8.25.32,16.35,1.65,24.13,3.98v99.48Z"/>
      <polygon class="cls-1" points="1149.9 0 1079.92 16.07 1016.48 123.93 1058.93 114.19 1149.9 0"/>
      <polygon class="cls-1" points="1284.8 304.4 1277.69 316.49 1235.95 387.45 1227.49 401.83 1265.84 393.03 1348.01 289.89 1284.8 304.4"/>
      <path class="cls-1" d="M1449.25,458.2h0v-88.24h0v-73.8h0v-140.5c0-29.39-8.34-51.2-24.79-64.83-16.52-13.67-39.08-17.34-67.03-10.92-18.36,4.22-34.98,12.61-49.38,24.95-13.7,11.75-24.06,25.86-30.84,41.99l-4.39,1.01v-44.11l-54.33,12.47v245.97l40.58-68.99,5.29-9,8.5-1.95v-86.68c12.3-16.89,25.08-30.74,37.99-41.21,13-10.53,25.88-17.32,38.28-20.16,14.99-3.44,26.47-1.84,34.1,4.79,7.76,6.75,11.7,18.74,11.7,35.62v118.16h-.03v321.75h0v4.49h0v26.8h0v2.68l54.36-12.48v-177.81Z"/>
      <path class="cls-1" d="M623.06,594.62c-18.62-13.05-45.18-15.73-78.94-7.97-33.63,7.72-59.92,22.28-78.14,43.28-18.33,21.12-27.62,47.62-27.62,78.76v65.59c0,31.43,9.57,53.84,28.45,66.63,11.5,7.79,26.08,11.69,43.58,11.69,10.8,0,22.72-1.49,35.7-4.47h0c33.62-7.72,59.83-22.06,77.91-42.6,18.21-20.69,27.44-46.85,27.44-77.73v-65.59c0-31.65-9.55-54.4-28.38-67.59ZM600.32,671.5v65.59c0,17.22-4.6,31.23-13.67,41.65-9.19,10.55-23.64,18.15-42.93,22.58-18.92,4.34-32.89,3.52-41.55-2.46-8.41-5.8-12.68-17.2-12.68-33.88v-65.59c0-18.04,4.61-32.54,13.69-43.09,9.18-10.67,23.62-18.33,42.91-22.76,7.85-1.8,14.85-2.7,20.97-2.7,8.61,0,15.48,1.78,20.54,5.33,8.44,5.93,12.72,17.82,12.72,35.33Z"/>
    </g>
  </g>
</svg>