<?xml version="1.0" encoding="UTF-8"?>
<svg id="Capa_2" data-name="Capa 2" xmlns="http://www.w3.org/2000/svg" xmlns:xlink="http://www.w3.org/1999/xlink" viewBox="0 0 1919 1072.08">
  <defs>
    <style>
      .cls-1 {
        fill: #fff;
      }

      .cls-2 {
        fill: url(#Degradado_sin_nombre_4);
      }
    </style>
    <linearGradient id="Degradado_sin_nombre_4" data-name="Degradado sin nombre 4" x1="0" y1="651.13" x2="149.8" y2="651.13" gradientUnits="userSpaceOnUse">
      <stop offset="0" stop-color="#c965ea"/>
      <stop offset="1" stop-color="#b799ff"/>
    </linearGradient>
  </defs>
  <g id="Capa_1-2" data-name="Capa 1">
    <g>
      <path class="cls-2" d="M64.95,401.33c-13.47,17.09-20.3,39.82-20.3,67.57v153.51c0,9.99-1.94,17.7-5.77,22.91-3.82,5.2-9.55,8.77-17.02,10.61l-21.86,5.36v43.73l23.38-5.74c7.18-1.75,12.57-1.13,16.03,1.88,3.48,3.03,5.25,9.48,5.25,19.16v153.51c0,27.68,7.02,47.28,20.88,58.27,8.68,6.88,19.94,10.33,33.63,10.33,8.02,0,16.87-1.18,26.52-3.55l24.12-5.92v-43.12l-19.42,4.77c-13.14,3.22-22.96,1.89-29.21-3.98-6.36-5.94-9.58-16.13-9.58-30.28v-149.28c0-12.72-1.39-22.18-4.26-28.95-2.99-7.01-7.67-12.02-13.92-14.87-.96-.44-1.97-.84-3.02-1.19,1.38-1.07,2.68-2.16,3.9-3.27,5.88-5.36,10.3-12.15,13.13-20.19,2.77-7.88,4.17-18.19,4.17-30.66v-149.28c0-14.44,3.38-26.59,10.06-36.12,6.63-9.46,16.81-15.94,30.25-19.24l17.9-4.4v-43.12l-25.64,6.3c-25.86,6.35-45.78,18.2-59.2,35.23Z"/>
      <path class="cls-1" d="M1313.59,412.91c-14.92.55-30.37,2.65-45.93,6.22-34,7.81-62.58,25.85-84.96,53.64-22.39,27.8-33.74,59.44-33.74,94.02v33.59c0,33.66,7.29,58.22,21.66,72.99,10.72,11.03,24.21,16.63,40.09,16.63,5.79,0,11.98-.75,18.41-2.22,17.7-4.06,33.16-12.46,45.96-24.96,12.07-11.78,22.42-26.88,30.79-44.88l.21-.44,4.78-1.1v48.57l49.11-11.27v-238.31l-3.73-.51c-13.39-1.84-27.73-2.5-42.64-1.96ZM1310.85,573.23l-.17.25c-12.92,19.08-25.59,34.19-37.64,44.9-12.08,10.74-24.1,17.54-35.74,20.21-3.79.87-7.27,1.31-10.46,1.31-7.71,0-13.67-2.57-18.07-7.75-6.57-7.74-9.91-21.62-9.91-41.24v-32.78c0-26.12,6.49-47.48,19.29-63.47,12.8-16,29.42-26.44,49.4-31.03,8.62-1.98,16.94-3.36,24.73-4.09,5.91-.55,11.81-.86,17.55-.9h1.01s0,114.6,0,114.6Z"/>
      <polygon class="cls-1" points="933.03 709.02 933.03 752.09 1127.4 707.47 1127.4 662.29 996.7 692.29 1127.4 499.41 1127.4 456.35 933.03 500.97 933.03 546.15 1063.72 516.14 933.03 709.02"/>
      <polygon class="cls-1" points="1724.22 527.4 1724.22 570.56 1919 525.84 1919 480.56 1788.03 510.63 1919 317.34 1919 274.18 1724.22 318.9 1724.22 364.18 1855.18 334.11 1724.22 527.4"/>
      <path class="cls-1" d="M874.27,534.32c-15.04-12.45-35.59-15.79-61.08-9.92-16.76,3.85-31.92,11.5-45.07,22.76-12.41,10.64-21.84,23.43-28.02,38.03l-.2.47-4.66,1.07v-40.4l-49.01,11.25v251.25l49.01-11.26v-167.68l.19-.26c11.26-15.44,22.96-28.13,34.78-37.69,11.94-9.68,23.79-15.92,35.22-18.54,14.05-3.23,24.38-1.77,31.57,4.47,7.19,6.25,10.84,17.32,10.84,32.91v160.95l49.02-11.26v-167.05c0-26.8-7.59-46.69-22.57-59.1Z"/>
      <path class="cls-1" d="M1633.3,549.29c-8.66,7.24-22.86,13.16-42.2,17.61-19.7,4.52-34.49,3.63-43.96-2.66-9.24-6.13-13.93-19.08-13.93-38.47v-23.23l166.86-38.31v-41.43c0-34.89-10.15-58.98-30.16-71.61-12.37-7.8-27.36-11.71-44.79-11.71-10.36,0-21.58,1.38-33.62,4.14-31.75,7.29-57.87,21.58-77.64,42.47-19.94,21.07-30.04,48.54-30.04,81.67v67.16c0,32.67,9.86,55.56,29.29,68.03,11.69,7.5,26.44,11.31,43.82,11.31,10.98,0,23.19-1.52,36.28-4.53,32.16-7.38,56.42-17.8,72.1-30.96,15.78-13.24,27.68-31.69,35.38-54.85l1.58-4.74-48.34-2.85-.95,2.74c-4.48,12.88-11.11,23.05-19.7,30.22ZM1533.22,458.19c0-19.83,4.96-35.71,14.73-47.2,9.84-11.57,24.93-19.76,44.87-24.33,7.53-1.73,14.42-2.61,20.49-2.61,9.67,0,17.5,2.22,23.27,6.59,9.37,7.1,14.12,21.42,14.12,42.58v3.2l-117.48,26.97v-5.2Z"/>
      <path class="cls-1" d="M303.16,371.91c13.95-3.2,24.29-2.11,30.74,3.23,6.5,5.39,9.79,15.95,9.79,31.4v29.08l50.29-11.54v-43.11c0-25.14-7.25-43.39-21.54-54.25-14.24-10.8-32.06-13.85-52.98-9.05-18.56,4.26-34.63,12.06-47.76,23.16-12.56,10.63-22.19,24.95-28.62,42.58l-.19.51-6,1.38v-44.26l-52.5,12.06v273.97l52.5-12.06v-188.01l.14-.24c9.25-15.63,19.34-28.02,30-36.83,10.8-8.93,22.96-14.99,36.13-18.02Z"/>
      <path class="cls-1" d="M524.4,502.95c-16.26,3.73-28.28,2.32-35.75-4.21-7.58-6.62-11.42-19.17-11.42-37.31v-175.55l-52.51,12.05v182.51c0,28.31,8.47,49.66,25.17,63.46,11.56,9.56,25.81,14.41,42.33,14.41,7.32,0,15.19-.96,23.4-2.84,17.69-4.05,34.14-12.54,48.89-25.21,14-12.02,24.39-25.93,30.89-41.36l.2-.47,6.12-1.41v44.25l52.51-12.06V245.24l-52.51,12.06v183.39l-.19.26c-12.96,18.01-25.85,32.22-38.31,42.22-12.57,10.09-25.64,16.75-38.83,19.78Z"/>
      <path class="cls-1" d="M982.76,423.41c12.62,8.1,28.54,12.21,47.3,12.21,11.85,0,25.02-1.64,39.14-4.89,34.7-7.97,60.87-19.21,77.8-33.41,17.03-14.28,29.88-34.2,38.18-59.19l1.73-5.21-52.3-3.09-1.05,3.01c-4.83,13.88-11.97,24.83-21.22,32.56-9.33,7.8-24.63,14.18-45.48,18.97-21.22,4.88-37.15,3.91-47.34-2.86-9.94-6.6-14.99-20.54-14.99-41.43v-24.99l179.96-41.32v-44.75c0-37.66-10.95-63.67-32.56-77.29-13.35-8.42-29.54-12.64-48.35-12.64-11.18,0-23.28,1.49-36.28,4.47-34.26,7.86-62.45,23.28-83.77,45.83-21.51,22.74-32.42,52.39-32.42,88.13v72.44c0,35.27,10.64,59.97,31.63,73.44ZM1004.55,267.21c0-21.36,5.34-38.48,15.87-50.86,10.6-12.46,26.87-21.28,48.35-26.22,8.12-1.86,15.54-2.81,22.08-2.81,10.41,0,18.84,2.38,25.05,7.09,10.08,7.64,15.2,23.06,15.2,45.86v3.39l-126.54,29.05v-5.51Z"/>
      <path class="cls-1" d="M828.73,200.83c-17.39,3.99-33.3,12.13-47.31,24.17-13.33,11.47-24.05,25.69-31.84,42.25l-.21.44-6.24,1.43V1.66l-52.46,12.05v468.08l2.59,1.04c16.26,6.5,34.26,10.31,53.5,11.3,3.63.19,7.32.29,10.99.29,15.13,0,30.07-1.64,44.4-4.88l.57-.14c36.63-8.41,65.62-24.25,86.15-47.08,20.65-22.96,31.12-51.36,31.12-84.38v-72.07c0-32.86-8.02-57.12-23.84-72.1-16.03-15.18-38.72-19.53-67.43-12.94ZM867.53,367.21c0,20.1-5.46,36.51-16.22,48.77-10.79,12.3-27.75,21.2-50.42,26.47h0s-.46.11-.46.11c-9.74,2.23-18.96,3.36-27.49,3.36-1.47,0-2.91-.03-4.33-.1-8.49-.39-16.82-1.88-24.77-4.44l-.69-.22v-125.79l.18-.26c12.1-17.5,24.47-31.5,36.78-41.6,12.41-10.18,25.68-16.95,39.43-20.1,16.24-3.73,28.41-2.2,36.16,4.54,7.86,6.85,11.85,19.8,11.85,38.51v70.74Z"/>
      <path class="cls-1" d="M354.55,637.93c-18.57-.58-37.49,1.32-56.25,5.63-35.92,8.24-64.35,23.85-84.49,46.4-20.27,22.69-30.56,50.49-30.56,82.62v48.8c0,5.92.34,11.91,1.04,18.32,2.54,23.19,10.09,40.88,22.44,52.57,15.81,14.98,38.16,19.28,66.44,12.8,17.08-3.92,32.72-11.91,46.48-23.75,13.01-11.19,23.48-25.05,31.13-41.19l.21-.44,4.86-1.11v100.91c0,19.21-6.49,35.3-19.86,49.21-13.41,13.95-32.39,23.82-56.41,29.33-10.58,2.43-22.14,3.94-34.36,4.48-12.29.54-24.2.25-35.4-.85l-3.98-.39v49.78c7.35.68,14.21,1.01,20.96,1.01,4.62,0,9.3-.12,13.91-.37,14.09-.77,27.58-2.62,40.09-5.5,39.89-9.16,71.42-25.97,93.72-49.98,21.66-23.34,33-51.71,33.72-84.31.01-.5.04-.98.07-1.47.03-.58.07-1.16.07-1.76v-74.85l.14-13.96v-192.35l-3.17-1.08c-15.08-5.1-32.17-7.98-50.8-8.54ZM356,792.37l-.18.26c-11.74,16.96-23.82,30.54-35.89,40.36-3.34,2.72-6.92,5.3-10.63,7.66-8.97,5.72-18.19,9.69-27.41,11.81-5.51,1.26-10.53,1.89-15.04,1.89-8.31,0-14.9-2.13-19.68-6.38-2.18-1.94-4.13-4.53-5.79-7.7-3.71-7.1-5.6-16.94-5.6-29.23v-47.5c0-19.46,5.34-35.35,15.88-47.24,10.67-12.03,27.21-20.69,49.16-25.72,8.8-2.02,17.59-3.05,26.12-3.05,1.28,0,2.61.03,3.96.08,8.34.32,16.54,1.68,24.38,4.02l.71.21v100.54Z"/>
      <polygon class="cls-1" points="1080.56 15.33 1018.52 120.82 1058.36 111.67 1147.33 0 1080.56 15.33"/>
      <polygon class="cls-1" points="1285.44 303.66 1229.53 398.72 1265.27 390.51 1345.44 289.89 1285.44 303.66"/>
      <path class="cls-1" d="M1423.82,89.99c-16.27-13.46-38.53-17.07-66.17-10.72-18.2,4.18-34.67,12.5-48.95,24.73-13.57,11.64-23.85,25.64-30.57,41.62l-.2.47-6.11,1.4v-44.11l-52.33,12.02v241.5l44.22-75.19,8.14-1.87v-86.21l.19-.26c12.35-16.96,25.2-30.88,38.17-41.39,13.12-10.63,26.13-17.48,38.69-20.36,15.33-3.52,27.1-1.84,34.98,5.01,7.99,6.95,12.04,19.19,12.04,36.38v118.96h-.03s0,353.66,0,353.66l52.36-12.02V154.05c0-29.08-8.22-50.63-24.43-64.06Z"/>
      <path class="cls-1" d="M622.49,593.82h0c-11.52-8.07-26.15-12.12-43.71-12.12-10.45,0-21.94,1.43-34.43,4.3-33.42,7.67-59.53,22.13-77.6,42.96-18.16,20.93-27.37,47.21-27.37,78.11v65.59c0,31.07,9.42,53.21,28.01,65.81,11.29,7.64,25.77,11.52,43.02,11.52,10.51,0,22.24-1.45,34.88-4.31l.6-.14c33.41-7.67,59.44-21.89,77.38-42.28,18.04-20.51,27.19-46.44,27.19-77.07v-65.59c0-31.31-9.41-53.78-27.96-66.77ZM601.32,735.48c0,17.46-4.68,31.7-13.92,42.3-9.34,10.72-23.96,18.42-43.46,22.9-8.01,1.84-15.16,2.76-21.42,2.76-8.74,0-15.74-1.79-20.92-5.37-8.7-5.99-13.11-17.67-13.11-34.7v-65.59c0-18.28,4.69-33,13.93-43.75,9.33-10.84,23.94-18.6,43.45-23.08,7.9-1.81,15.02-2.72,21.19-2.72,8.8,0,15.9,1.85,21.11,5.51,8.72,6.13,13.14,18.3,13.14,36.15v65.59Z"/>
    </g>
  </g>
</svg>