<?xml version="1.0" encoding="UTF-8"?>
<svg id="Capa_2" data-name="Capa 2" xmlns="http://www.w3.org/2000/svg" viewBox="0 0 15.77 16">
  <defs>
    <style>
      .cls-1 {
        fill: #b799ff;
      }

      .cls-2 {
        fill: #121212;
      }
    </style>
  </defs>
  <g id="Capa_1-2" data-name="Capa 1">
    <g>
      <path class="cls-1" d="M3.56,2.3l-.59.14c-.63.15-1.11.44-1.44.86-.33.42-.5.97-.5,1.65v3.53c0,.19-.04.35-.1.44-.07.09-.17.15-.31.19l-.5.12-.11.03v1.31l.18-.05.54-.13s.09-.02.13-.02c.05,0,.08,0,.11.03.01.01.07.07.07.33v3.53c0,.68.18,1.18.54,1.46.23.18.52.27.87.27.2,0,.41-.03.65-.09l.56-.14.11-.03v-1.3l-.18.05-.45.11c-.09.02-.18.04-.26.04-.12,0-.21-.03-.28-.09-.11-.11-.17-.31-.17-.59v-3.44c0-.31-.04-.55-.11-.72-.06-.15-.15-.26-.27-.35.12-.13.21-.28.27-.46.07-.2.1-.45.1-.76v-3.44c0-.3.07-.55.2-.75.13-.19.34-.32.61-.38l.41-.1.11-.03v-1.3l-.18.05Z"/>
      <path class="cls-2" d="M14.72.55c-.48-.36-1.05-.55-1.69-.55-.28,0-.59.04-.9.11-.91.21-1.34.39-1.98.94-.44.37-.99.99-1.35,1.98l-1.03.28V1.28l-2.3.58v13.5l2.3-.58V5.86c.46-.78,1.2-1.8,1.73-2.24.54-.45,1.15-.75,1.81-.9.26-.06.5-.09.71-.09.36,0,.64.09.85.26.33.28.5.81.5,1.59v1.39l2.41-.55v-2.11c0-1.23-.35-2.13-1.05-2.66Z"/>
    </g>
  </g>
</svg>